<svg id="Friendly" xmlns="http://www.w3.org/2000/svg" width="78.315" height="78.184" viewBox="0 0 78.315 78.184">
  <path id="Tracé_27344" data-name="Tracé 27344" d="M61.232,41.845V6.908A6.915,6.915,0,0,0,54.325,0H6.907A6.915,6.915,0,0,0,0,6.908v49.6a6.914,6.914,0,0,0,6.907,6.908H42.256A18.191,18.191,0,1,0,61.232,41.845M6.907,60.419A3.912,3.912,0,0,1,3,56.511V6.908A3.912,3.912,0,0,1,6.907,3H54.325a3.912,3.912,0,0,1,3.907,3.908V41.887a18.221,18.221,0,0,0-16.311,18.1c0,.146.018.288.022.433ZM60.118,75.184a15.2,15.2,0,1,1,15.2-15.2,15.215,15.215,0,0,1-15.2,15.2" fill="#acbdd8"/>
  <path id="Tracé_27345" data-name="Tracé 27345" d="M52.553,61.827a7.448,7.448,0,0,0,14.9,0v-1.5h-14.9Zm11.637,1.5a4.449,4.449,0,0,1-8.377,0Z" fill="#acbdd8"/>
  <path id="Tracé_27346" data-name="Tracé 27346" d="M65.138,51.774a4.413,4.413,0,0,0-4.408,4.408h3a1.408,1.408,0,1,1,2.816,0h3a4.413,4.413,0,0,0-4.408-4.408" fill="#acbdd8"/>
  <path id="Tracé_27347" data-name="Tracé 27347" d="M54.574,54.774a1.41,1.41,0,0,1,1.408,1.408h3a4.408,4.408,0,1,0-8.816,0h3a1.41,1.41,0,0,1,1.408-1.408" fill="#acbdd8"/>
  <path id="Tracé_27348" data-name="Tracé 27348" d="M6.929,46.9H20.335V39.017H6.929Zm3-4.881h7.406V43.9H9.929Z" fill="#acbdd8"/>
  <path id="Tracé_27349" data-name="Tracé 27349" d="M6.929,57.348H20.335V49.467H6.929Zm3-4.881h7.406v1.881H9.929Z" fill="#acbdd8"/>
  <path id="Tracé_27350" data-name="Tracé 27350" d="M22.775,46.9H36.181V39.017H22.775Zm3-4.881h7.406V43.9H25.775Z" fill="#acbdd8"/>
  <path id="Tracé_27351" data-name="Tracé 27351" d="M22.775,57.348H36.181V49.467H22.775Zm3-4.881h7.406v1.881H25.775Z" fill="#acbdd8"/>
  <path id="Tracé_27352" data-name="Tracé 27352" d="M44.4,36.641V28.483H46v-3H44.4V8.627h-3V25.483H39.923v3H41.4v8.158Z" fill="#acbdd8"/>
  <path id="Tracé_27353" data-name="Tracé 27353" d="M49.4,36.641h3V17.365h1.536v-3H52.4V8.627h-3v5.738H47.86v3H49.4Z" fill="#acbdd8"/>
  <path id="Tracé_27354" data-name="Tracé 27354" d="M21.307,4.7A16.655,16.655,0,1,0,37.963,21.351,16.674,16.674,0,0,0,21.307,4.7m8.835,15.155a8.949,8.949,0,0,0-2.755-5.077l2.619-3.94a13.646,13.646,0,0,1,4.87,9.017ZM21.307,15.38a5.97,5.97,0,1,1-5.97,5.971,5.978,5.978,0,0,1,5.97-5.971m6.187-6.186-2.615,3.932a8.906,8.906,0,0,0-8.33.634l-3.13-3.535A13.549,13.549,0,0,1,27.494,9.194M7.652,21.351a13.589,13.589,0,0,1,3.529-9.129l3.127,3.533A8.954,8.954,0,0,0,25.253,29.394l2.822,3.8A13.633,13.633,0,0,1,7.652,21.351M30.5,31.422,27.69,27.644a8.944,8.944,0,0,0,2.452-4.793h4.734a13.62,13.62,0,0,1-4.38,8.571" fill="#acbdd8"/>
</svg>
