<svg id="Highly_Secured" data-name="Highly Secured" xmlns="http://www.w3.org/2000/svg" xmlns:xlink="http://www.w3.org/1999/xlink" width="125.318" height="64.026" viewBox="0 0 125.318 64.026">
  <defs>
    <clipPath id="clip-path">
      <rect id="Rectangle_1239" data-name="Rectangle 1239" width="125.318" height="64.026" transform="translate(0 0)" fill="none"/>
    </clipPath>
  </defs>
  <g id="Groupe_445" data-name="Groupe 445" transform="translate(0 0)" clip-path="url(#clip-path)">
    <path id="Tracé_27355" data-name="Tracé 27355" d="M66.693,33.063a7.182,7.182,0,0,0-9.405,10.849v5.509a4.956,4.956,0,0,0,4.95,4.951h.214a4.956,4.956,0,0,0,4.95-4.951V43.532a7.154,7.154,0,0,0-.709-10.469m-1.782,8.71-.509.449v7.2a1.953,1.953,0,0,1-1.95,1.951h-.214a1.953,1.953,0,0,1-1.95-1.951V42.453L59.681,42a4.144,4.144,0,0,1-1.644-4.14,4.205,4.205,0,0,1,3.205-3.314,4.513,4.513,0,0,1,.924-.1,4.13,4.13,0,0,1,2.635.938,4.18,4.18,0,0,1,1.548,3.254,4.125,4.125,0,0,1-1.438,3.129" fill="#acbdd8"/>
    <path id="Tracé_27356" data-name="Tracé 27356" d="M118.675,47.432V46.413a5.531,5.531,0,0,0-5.524-5.525H87.173V32.655h2.283a8.386,8.386,0,1,0-.165-3H87.173V28.484a7.523,7.523,0,0,0-7.515-7.516H76.589V15.379a15.379,15.379,0,1,0-30.758,0h3a12.379,12.379,0,1,1,24.758,0v5.589H44.959a7.523,7.523,0,0,0-7.515,7.516v.641H35.033a8.4,8.4,0,1,0,.025,3h2.386V42.454H12.168A2.527,2.527,0,0,1,9.644,39.93v-.939a8.366,8.366,0,1,0-3-.081v1.02a5.53,5.53,0,0,0,5.524,5.524H37.444v8.233H35.862a8.386,8.386,0,1,0,.165,3h1.49a7.522,7.522,0,0,0,7.442,6.522h34.7a7.527,7.527,0,0,0,7.359-5.992h3.267a8.4,8.4,0,1,0-.024-3H87.173V43.888h25.978a2.528,2.528,0,0,1,2.524,2.525v.938a8.366,8.366,0,1,0,3,.081M97.608,25.316a5.39,5.39,0,1,1-5.39,5.39,5.4,5.4,0,0,1,5.39-5.39M26.8,36.1a5.39,5.39,0,1,1,5.39-5.389A5.4,5.4,0,0,1,26.8,36.1M3,30.706A5.39,5.39,0,1,1,8.39,36.1,5.4,5.4,0,0,1,3,30.706m24.71,30.32a5.389,5.389,0,1,1,5.39-5.39,5.4,5.4,0,0,1-5.39,5.39m56.463-5.333a4.52,4.52,0,0,1-4.515,4.516h-34.7a4.52,4.52,0,0,1-4.515-4.516V28.484a4.52,4.52,0,0,1,4.515-4.516h34.7a4.52,4.52,0,0,1,4.515,4.516ZM98.52,50.247a5.389,5.389,0,1,1-5.39,5.389,5.4,5.4,0,0,1,5.39-5.389m18.409,10.779a5.389,5.389,0,1,1,5.39-5.39,5.4,5.4,0,0,1-5.39,5.39" fill="#acbdd8"/>
  </g>
</svg>
