<svg id="Thriving_Community" data-name="Thriving Community" xmlns="http://www.w3.org/2000/svg" xmlns:xlink="http://www.w3.org/1999/xlink" width="62.409" height="62.64" viewBox="0 0 62.409 62.64">
  <defs>
    <clipPath id="clip-path">
      <rect id="Rectangle_1240" data-name="Rectangle 1240" width="62.409" height="62.64" transform="translate(0 0)" fill="none"/>
    </clipPath>
  </defs>
  <g id="Groupe_447" data-name="Groupe 447" transform="translate(0 0)" clip-path="url(#clip-path)">
    <path id="Tracé_27357" data-name="Tracé 27357" d="M58.684,39.813A28.11,28.11,0,0,0,38.625,7.354a8.342,8.342,0,0,0-16.606.427A28.075,28.075,0,0,0,3.6,40.955,8.339,8.339,0,0,0,12.037,55.3a28.127,28.127,0,0,0,23.406,6.988l.011.03c.044-.016.093-.039.14-.058a28.267,28.267,0,0,0,15.251-7.791,8.347,8.347,0,0,0,7.839-14.652M55.606,38.56A8.34,8.34,0,0,0,48.1,52.593a24.986,24.986,0,0,1-8.64,5.3,9.166,9.166,0,0,0-.106-5.14c-1.305-4.657-5.212-5.51-8.065-6.134a19.754,19.754,0,0,1-2.1-.535l-.223-.076L28.732,46c-.126-.006-3.089-.18-3.346-3.959a5,5,0,0,1,3.434-5.077,9.145,9.145,0,0,0,2.264-1.173,7.185,7.185,0,0,0,6.284,3.445,10.43,10.43,0,0,0,2.424-.3,7.444,7.444,0,0,0,5.735-8.8,14.727,14.727,0,0,0-.882-2.6c-1.092-2.7-1.764-4.749-.443-6.618,2.258-3.2,5.66-2,6.675-1.545a24.971,24.971,0,0,1,4.729,19.2M30.34,3.171a5.178,5.178,0,1,1-5.177,5.178A5.185,5.185,0,0,1,30.34,3.171m-7.887,7.894a8.34,8.34,0,0,0,15.906-.409A24.8,24.8,0,0,1,47.3,15.57a7.815,7.815,0,0,0-5.761,3.462c-2.446,3.466-.921,7.227.087,9.717a12.984,12.984,0,0,1,.7,2c.007.041.733,4.061-3.294,5.023-3.833.92-5.258-1.413-5.765-2.885a7.8,7.8,0,0,1-.311-2.313,7.7,7.7,0,0,0-2.746-6.349,7.017,7.017,0,0,0-5.179-1.9,7.861,7.861,0,0,0-5.293,2.835c-.195.226-.393.47-.6.723-1.574,1.931-3.2,3.932-6.8,3.25A6.839,6.839,0,0,1,7.559,26.1,25.022,25.022,0,0,1,22.453,11.065M3.172,47.816A5.178,5.178,0,1,1,8.35,52.994a5.184,5.184,0,0,1-5.178-5.178m11.487,5.453A8.34,8.34,0,0,0,6.632,39.647a24.942,24.942,0,0,1-.545-5.188,24.589,24.589,0,0,1,.449-4.6,10.639,10.639,0,0,0,5.209,2.464c5.494,1.034,8.265-2.363,9.92-4.393.19-.231.371-.454.547-.66a4.673,4.673,0,0,1,3.052-1.707,3.817,3.817,0,0,1,2.8,1.1c1.545,1.358,1.584,2.417,1.641,4.021a15.658,15.658,0,0,0,.162,1.9A5.64,5.64,0,0,1,27.732,33.9a8.182,8.182,0,0,0-5.594,8.366c.349,5.113,4.073,6.77,6.2,6.972.726.233,1.5.4,2.25.566,3.018.66,4.9,1.247,5.626,3.833,1.013,3.621-.736,5.028-1.57,5.476a24.823,24.823,0,0,1-19.986-5.841m39.4-1.331a5.177,5.177,0,1,1,5.178-5.178,5.185,5.185,0,0,1-5.178,5.178" fill="#acbdd8"/>
  </g>
</svg>
