<svg id="COMPO1" xmlns="http://www.w3.org/2000/svg" xmlns:xlink="http://www.w3.org/1999/xlink" width="155.714" height="150.02" viewBox="0 0 155.714 150.02">
  <defs>
    <clipPath id="clip-path">
      <rect id="Rectangle_1282" data-name="Rectangle 1282" width="155.713" height="150.02" fill="none"/>
    </clipPath>
  </defs>
  <path id="Tracé_27657" data-name="Tracé 27657" d="M142.16,119.646a71.08,71.08,0,1,1-71.08-71.08,71.08,71.08,0,0,1,71.08,71.08" transform="translate(13.554 -40.706)" fill="#acbdd8"/>
  <g id="Groupe_380" data-name="Groupe 380" clip-path="url(#clip-path)">
    <path id="Tracé_27554" data-name="Tracé 27554" d="M188.364,132.552a15.48,15.48,0,0,1,.63-2.95,7.845,7.845,0,0,1,3.222-4.463c1.89-1.107,4.205-.644,6.134-1.625a6.615,6.615,0,0,0,2.325-1.976c.629-2.573,1.2-5.167,2.791-7.337a9.653,9.653,0,0,1,5.477-3.662,13.83,13.83,0,0,1,3.61-.251,8.025,8.025,0,0,0,3.518-.424,4.689,4.689,0,0,0,2.129-2.03c.237-.782.419-1.581.619-2.372a20.876,20.876,0,0,1,1.29-3.717,18.588,18.588,0,0,1,1.957-3.288.581.581,0,0,1,.768-.2.565.565,0,0,1,.2.767,18.6,18.6,0,0,0-2.837,5.687,8.512,8.512,0,0,1-.979,3.611c-.114.361-.239.718-.383,1.065q3.444-2.2,6.89-4.392a7.341,7.341,0,0,1,3.713-1.463,4.4,4.4,0,0,1,3.084,1.322c1.955,1.9,2.011,4.776,1.755,7.31a41.191,41.191,0,0,1-1.706,8.127,68.034,68.034,0,0,1-3.034,7.788c-1.091,2.4-2.256,4.78-3.5,7.108-2.161,4.056-4.837,8.177-8.935,10.5a18.463,18.463,0,0,1-7.813,2.1,27.838,27.838,0,0,1-8.05-.469,17.045,17.045,0,0,1-6.888-3.14,13.612,13.612,0,0,1-3.665-4.347,6.456,6.456,0,0,1-2.205-3.629,10.657,10.657,0,0,1-.12-3.65M206.869,113.7c2.027-.847,4.264-.808,6.39-1.246a7.091,7.091,0,0,0,2.783-1.111,4.293,4.293,0,0,0,.59-.518,6.416,6.416,0,0,1-2.087.549c-1.248.127-2.5-.024-3.752.032a8.5,8.5,0,0,0-5.776,2.669,9.779,9.779,0,0,0-1.851,2.988,7.993,7.993,0,0,1,3.7-3.364m-17.478,20.823c0,.057.008.114.011.172a9.547,9.547,0,0,1,.351-2.434,9.645,9.645,0,0,1,3.578-5.218,7.575,7.575,0,0,1,2.848-1.268c.658-.139,1.331-.2,1.977-.391a3.059,3.059,0,0,0,1.414-.9,4.848,4.848,0,0,0,.487-.638c.012-.041.026-.081.038-.122a7.4,7.4,0,0,1-2.432,1.261c-1.068.313-2.192.328-3.279.547a4.833,4.833,0,0,0-2.41,1.178,6.748,6.748,0,0,0-1.446,2.048,12.565,12.565,0,0,0-1.138,5.763" transform="translate(-175.56 -47.654)" fill="#233d4d"/>
    <path id="Tracé_27555" data-name="Tracé 27555" d="M161.315,102.915c0,5.318,13.618-1.4,18.936-1.4s7.177-.9,10.35-5.17c1.772-2.382.826-6.13-1.7-8.584a8.406,8.406,0,0,0-5.52-2.292,4.234,4.234,0,0,0-4.23-3.047c-6.991-.038-11.468,7.017-11.468,7.017s-2.217.03-4.541,4.165c-2.46,4.375-1.831,6.919-1.831,9.312" transform="translate(-118.779 -40.004)" fill="#233d4d"/>
    <path id="Tracé_27556" data-name="Tracé 27556" d="M161.133,111.233c0,.177,0,.353.013.527a9.347,9.347,0,0,0,18.678-.527q0-.452-.043-.893a9.349,9.349,0,0,0-14.793-6.675c-.1.224-.215.447-.327.666a24.158,24.158,0,0,1-3.317,4.922,9.279,9.279,0,0,0-.211,1.979" transform="translate(-107.036 -49.451)" fill="#ffa895"/>
    <path id="Tracé_27557" data-name="Tracé 27557" d="M161.216,105.307a9.134,9.134,0,0,0,.918,1.32A9.32,9.32,0,0,0,169.322,110c5.162,0,11.41.363,11.447-4.8.036-6.358-6.286-13.9-11.447-13.9-.316,0-.63.016-.94.045a32.653,32.653,0,0,1-2.406,7.178c-.105.224-.216.447-.328.666a24.134,24.134,0,0,1-3.317,4.922c-.357.409-.729.806-1.115,1.187" transform="translate(-108.023 -44.318)" fill="#ffa895"/>
    <path id="Tracé_27558" data-name="Tracé 27558" d="M179.712,109.117a.866.866,0,0,1,.023-.163.609.609,0,0,1,.068-.165.713.713,0,0,1,.237-.24.211.211,0,0,1,.03-.016.878.878,0,0,1,.163-.066.905.905,0,0,1,.439,0,.525.525,0,0,1,.07.022,1.414,1.414,0,0,1,.2.089,1.088,1.088,0,0,1,.229.177.621.621,0,0,1,.051.059,1.578,1.578,0,0,1,.129.175.607.607,0,0,1,.033.066,1.687,1.687,0,0,1,.082.2.681.681,0,0,1,.016.072,1.527,1.527,0,0,1,.027.222.488.488,0,0,1,0,.078,1.382,1.382,0,0,1-.033.216.376.376,0,0,1-.013.041,1.057,1.057,0,0,1-.068.159.7.7,0,0,1-.053.071.663.663,0,0,1-.051.065.3.3,0,0,1-.025.02.426.426,0,0,1-.187.125.28.28,0,0,1-.142.038.42.42,0,0,1-.192,0c-.062-.014-.079-.017-.1-.023a1.158,1.158,0,0,1-.2-.091,1.259,1.259,0,0,1-.127-.086c-.05-.036-.1-.075-.145-.114a.956.956,0,0,1-.123-.127,1.565,1.565,0,0,1-.181-.257,1.611,1.611,0,0,1-.118-.288c0-.014-.008-.029-.011-.044a1.168,1.168,0,0,1-.024-.183c0-.009,0-.017,0-.027" transform="translate(-118.28 -52.633)" fill="#233d4d"/>
    <path id="Tracé_27559" data-name="Tracé 27559" d="M168.453,103.855a.379.379,0,0,1,.01-.055c0-.019,0-.037.007-.055a.627.627,0,0,1,.258-.336.564.564,0,0,1,.283-.077,1.488,1.488,0,0,1,.224.028,1.014,1.014,0,0,1,.133.025.439.439,0,0,1,.057.02,1.812,1.812,0,0,1,.175.076,1.2,1.2,0,0,1,.205.149,1.126,1.126,0,0,1,.164.192.543.543,0,0,1,.058.1,1,1,0,0,1,.087.234.95.95,0,0,1,.023.262.563.563,0,0,1-.077.283.43.43,0,0,1-.145.157.42.42,0,0,1-.191.1.562.562,0,0,1-.258.006.58.58,0,0,1-.15-.02,1.349,1.349,0,0,1-.534-.327.732.732,0,0,1-.059-.067,1.987,1.987,0,0,1-.133-.18,1.4,1.4,0,0,1-.129-.291.425.425,0,0,1-.01-.224" transform="translate(-101.115 -50.155)" fill="#233d4d"/>
    <path id="Tracé_27560" data-name="Tracé 27560" d="M192.655,119.59a3.374,3.374,0,1,0,3.373-3.374,3.374,3.374,0,0,0-3.373,3.374" transform="translate(-142.836 -56.407)" fill="#ffa895"/>
    <path id="Tracé_27561" data-name="Tracé 27561" d="M0,34.45v.826H74.067V34.45a4.494,4.494,0,0,0-4.493-4.493H4.493A4.494,4.494,0,0,0,0,34.45" transform="translate(81.646 -14.54)" fill="#e0e0e0"/>
    <rect id="Rectangle_1276" data-name="Rectangle 1276" width="74.067" height="38.052" transform="translate(81.646 20.736)" fill="#ededed"/>
    <path id="Tracé_27562" data-name="Tracé 27562" d="M0,73.044v8.778H74.067v-28.4a17.03,17.03,0,0,0-3.084-2.31,28.931,28.931,0,0,0-10.876-3.236c-.644-.079-1.3-.144-1.948-.2-6.332-.525-13.02,0-18.46.249-7.494.337-17.266,2.155-24.044,5.449-.343.166-.678.335-1.006.512a20.886,20.886,0,0,0-3.623,2.386C6.787,59.834,2.381,68.147,0,73.044" transform="translate(81.646 -23.035)" fill="#fcca46"/>
    <path id="Tracé_27563" data-name="Tracé 27563" d="M30.631,41.271a5.979,5.979,0,0,1,2.285-3.957,33.307,33.307,0,0,1,4.268-2.98,106.69,106.69,0,0,1,9.674-5.21,32.673,32.673,0,0,1,10.342-3.5A13.491,13.491,0,0,1,67,28.137a17.875,17.875,0,0,1,3.6,3.882,13.259,13.259,0,0,1,2.463,4.635A5.557,5.557,0,0,1,73.2,37.8a.671.671,0,0,1,.18.4c.164,1.641-1.338,2.781-2.557,3.568q-2.168,1.4-4.462,2.59a55.1,55.1,0,0,1-9.6,3.876A54.791,54.791,0,0,1,46.6,50.244a27.685,27.685,0,0,1-5.4.152,12.1,12.1,0,0,1-5.079-1.672A14.786,14.786,0,0,1,32.305,45.6a6.179,6.179,0,0,1-1.674-4.327" transform="translate(66.564 -12.386)" fill="#fcca46"/>
    <path id="Tracé_27564" data-name="Tracé 27564" d="M70.426,69.949a1.349,1.349,0,0,1,.126-.255.622.622,0,0,1,.081-.108,1.359,1.359,0,0,1,.507-.379,1.7,1.7,0,0,1,.351-.109c.05-.008.1-.013.144-.018a1.772,1.772,0,0,1,.224-.02,1.521,1.521,0,0,1,.466.058,1.433,1.433,0,0,1,.567.289,1.124,1.124,0,0,1,.326.476,1.018,1.018,0,0,1-.149.916,1.134,1.134,0,0,1-.2.209c-.012.022-.023.045-.036.067a1.286,1.286,0,0,1-.209.239.54.54,0,0,1-.056.046,1.229,1.229,0,0,1-.219.132,1.531,1.531,0,0,1-.246.081,1.256,1.256,0,0,1-.5,0,1.054,1.054,0,0,1-.4-.164,1.448,1.448,0,0,1-.21-.153c-.05-.045-.1-.094-.146-.143l-.033-.022a1.118,1.118,0,0,1-.222-.215,1.131,1.131,0,0,1-.144-.248.466.466,0,0,1-.038-.112,1.042,1.042,0,0,1,.015-.571" transform="translate(46.228 -33.52)" fill="#fff"/>
    <path id="Tracé_27565" data-name="Tracé 27565" d="M88.7,70.933a1.269,1.269,0,0,1,.762-.279,1.6,1.6,0,0,1,.338.03.938.938,0,0,1,.164.04,1.812,1.812,0,0,1,.581.319,1.384,1.384,0,0,1,.495.973,1.07,1.07,0,0,1-.154.606,1.215,1.215,0,0,1-.141.176.446.446,0,0,1-.055.054,1.035,1.035,0,0,1-.443.229,1.237,1.237,0,0,1-.728-.063,1.211,1.211,0,0,1-.64-.288,1.271,1.271,0,0,1-.2-.242,1.785,1.785,0,0,1-.155-.319,1.76,1.76,0,0,1-.129-.513.875.875,0,0,1,.31-.723" transform="translate(19.183 -34.292)" fill="#fff"/>
    <path id="Tracé_27566" data-name="Tracé 27566" d="M70.029,71.194a.561.561,0,0,1,1.122,0,43.281,43.281,0,0,0,.91,9.567.575.575,0,0,1-.392.69.567.567,0,0,1-.69-.392,44.638,44.638,0,0,1-.95-9.865" transform="translate(47.602 -34.292)" fill="#fcca46"/>
    <path id="Tracé_27567" data-name="Tracé 27567" d="M90.228,77.068q.13-1.786.308-3.569a.6.6,0,0,1,.561-.593.582.582,0,0,1,.561.593q-.624,6.281-.67,12.607-.012,1.792.023,3.584a.561.561,0,1,1-1.122,0q-.12-6.315.338-12.621" transform="translate(17.805 -35.386)" fill="#fcca46"/>
    <path id="Tracé_27568" data-name="Tracé 27568" d="M13.055,93.472a31.659,31.659,0,0,0,.307,3.407q.239,1.795.492,3.584H35.19a22.219,22.219,0,0,0-1.3-4.76A16.637,16.637,0,0,0,28.8,89.09c-3.456-2.7-8.17-4.543-12.239-2.054a6.828,6.828,0,0,0-3.508,6.435" transform="translate(113.807 -41.675)" fill="#ffa895"/>
    <path id="Tracé_27569" data-name="Tracé 27569" d="M56.428,44.794a6.772,6.772,0,0,0,3.508,3.515,15.528,15.528,0,0,0,5.326,1.129.588.588,0,0,0,.977.011c.263-.4.528-.8.8-1.189A52.267,52.267,0,0,1,74.7,39.5c.682-.624,1.444-1.19,2.076-1.863a2.4,2.4,0,0,0,.745-2.583,3.924,3.924,0,0,0-2-1.728,7.717,7.717,0,0,0-2.7-.644A14.05,14.05,0,0,0,67.057,33.7,50.26,50.26,0,0,0,61.6,36.211a11.54,11.54,0,0,0-4.446,3.535,5.428,5.428,0,0,0-.726,5.048" transform="translate(49.173 -15.852)" fill="#233d4d"/>
    <path id="Tracé_27570" data-name="Tracé 27570" d="M60.551,8.677a5.219,5.219,0,0,1,1.109-.494,3.141,3.141,0,0,1,.817-3.389A6.91,6.91,0,0,1,64.8,3.476c.952-.368,1.912-.7,2.869-1.057l2.581-.947A13.015,13.015,0,0,1,76.273,0c7.22,0,13.6,6.818,13.6,14.039a13.115,13.115,0,0,1-.754,4.657l.619,3.671a.582.582,0,0,1-.258.634,1.259,1.259,0,0,1-1.494-.236,2.346,2.346,0,0,1-.555-1.309c-2.679,2.882-7.214,3.471-11.823,3.471-6.1,0-10.748-3.3-12.048-8.681A8.933,8.933,0,0,1,60.775,13.1a.542.542,0,0,1,.182-.734c-.112-.117-.22-.238-.325-.361a5.869,5.869,0,0,1-1.115-1.739c-.256-.765.464-1.255,1.034-1.591" transform="translate(35.235)" fill="#233d4d"/>
    <path id="Tracé_27571" data-name="Tracé 27571" d="M71.461,33.583,75.769,39.3l-7.682,7.678-7.86-7.9Z" transform="translate(48.949 -16.3)" fill="#ffa895"/>
    <path id="Tracé_27572" data-name="Tracé 27572" d="M103.856,45c.119.209.249.417.393.626l-.328-.55c-.022-.025-.042-.051-.065-.076" transform="translate(-1.983 -21.843)" fill="#ffa895"/>
    <path id="Tracé_27573" data-name="Tracé 27573" d="M71.955,31.094c.023.025.043.051.065.076l.328.55.184.31c2.74,6.937,10.446,6.352,14.4,3.034A9.349,9.349,0,0,0,89,23.189v-1.14c-.072,0-.22.2-.411.5-.637,1.006-1.738,3.164-1.955,3.127-1.955-.341-.614-5.026-1.281-5.764-1.356-1.5-1.9-3.076-3.013-3.55-.213-.092-2.915.393-3.43.411a15.464,15.464,0,0,1-9.182,2.4,11.891,11.891,0,0,0,2.226,11.922" transform="translate(29.918 -7.933)" fill="#ffa895"/>
    <path id="Tracé_27574" data-name="Tracé 27574" d="M99.011,33.672a4.339,4.339,0,0,1,1.79,3.159,4.992,4.992,0,0,1-.1,1.972,3.908,3.908,0,0,1-.152.447c-.006.013-.107.292-.164.395.029.033.056.073.087.1a1.217,1.217,0,0,0,.34.241c.641.331.075,1.3-.567.969-.546-.282-1.158-.893-.975-1.565.079-.291.254-.551.337-.845a3.926,3.926,0,0,0-1.164-3.909c-.608-.385-.046-1.357.567-.969" transform="translate(4.091 -16.3)" fill="#f76d6d"/>
    <path id="Tracé_27575" data-name="Tracé 27575" d="M87.873,48.3c.091,0,.181-.01.272-.017.069-.011.115-.02.16-.03a3.444,3.444,0,0,0,.516-.156l.034-.016c.042-.019.083-.04.124-.061q.122-.063.239-.137c.039-.025.077-.05.114-.076l.033-.024a2.446,2.446,0,0,1,.2-.17.561.561,0,0,1,.794.794,3.789,3.789,0,0,1-2.485,1.017.561.561,0,0,1,0-1.122" transform="translate(20.26 -23.033)" fill="#f76d6d"/>
    <path id="Tracé_27576" data-name="Tracé 27576" d="M68,26.023A3.374,3.374,0,1,1,63.25,25.6,3.374,3.374,0,0,1,68,26.023" transform="translate(54.993 -12.045)" fill="#ffa895"/>
    <path id="Tracé_27577" data-name="Tracé 27577" d="M192.926,127.909l-4.683,9.7H177.034l7.1-16.34Z" transform="translate(-128.32 -58.858)" fill="#ffa895"/>
    <path id="Tracé_27578" data-name="Tracé 27578" d="M215.068,237.808l-42.381,1.014s-10.213,5.642-15.09,13.58-6.315,13.041-6.315,13.041H218.19s-.261-8.758-.68-12.474c-.944-8.365-2.441-15.161-2.441-15.161" transform="translate(-140.332 -115.424)" fill="#233d4d"/>
    <path id="Tracé_27579" data-name="Tracé 27579" d="M220.422,199.681a14.813,14.813,0,0,1,2.33-4.883c3.67-7.674,10.54-21.976,12.079-24.763,2.124-3.847,22.706,3.814,22.706,3.814l-9.777,22.473a14.85,14.85,0,1,1-27.338,3.36" transform="translate(-215.002 -82.004)" fill="#fcca46"/>
    <path id="Tracé_27580" data-name="Tracé 27580" d="M77.26,167.453c.016.453,1.8,15.309,6.558,23.721.559.988,1.16,1.991,1.784,2.99q.289.468.588.934A169.919,169.919,0,0,0,96.268,209l23.151-15.392-21.041-27.07-.723-.929-3.106-4S77.242,167,77.26,167.453" transform="translate(-3.466 -78.442)" fill="#fcca46"/>
    <path id="Tracé_27581" data-name="Tracé 27581" d="M123.083,163.627a12.516,12.516,0,0,0,14.27,12.4l-1.08,18.943s42.368-.765,42.381-1.014c0-.076.633-2.26,1.513-5.285.059,0,.117,0,.178,0a12.525,12.525,0,0,0,11.033-18.451,12.521,12.521,0,0,0-7.613-22.464s-1.806-.227-6.852-.3c-2.521,2.236-7.658,4.77-18.045,4.958-7.943.144-12.977-1.329-16.146-3.077a96.253,96.253,0,0,0-10.23,2.155l-.045.013-.1.027a.46.46,0,0,0-.059.018,12.524,12.524,0,0,0-9.2,12.075" transform="translate(-103.918 -71.571)" fill="#fcca46"/>
    <path id="Tracé_27582" data-name="Tracé 27582" d="M193.991,120.534a.564.564,0,0,1-.392-.69.576.576,0,0,1,.69-.392,10.362,10.362,0,0,1,2.7.927.565.565,0,0,1,0,.969l-1.3.657-.639.323c-.07.036-.137.074-.2.113a.567.567,0,0,1-.678.357.574.574,0,0,1-.392-.69c.118-.561.76-.775,1.21-1l.394-.2-.1-.034a9.809,9.809,0,0,0-1.292-.337" transform="translate(-141.174 -57.971)" fill="#f76d6d"/>
    <path id="Tracé_27583" data-name="Tracé 27583" d="M164.314,101.105c.163-.7,1.245-.406,1.082.3-.242,1.043.684,1.945,1.6,2.281a5.607,5.607,0,0,0,.891.238,3.217,3.217,0,0,1,.942.179c.375.207.411.611.456.992a6.518,6.518,0,0,1,.036,1.151.574.574,0,0,1-.561.561.567.567,0,0,1-.561-.561,6.486,6.486,0,0,0,0-.768c-.006-.1-.01-.255-.027-.385l-.168-.021c-.139-.02-.278-.04-.416-.065a5.7,5.7,0,0,1-.772-.2,4.388,4.388,0,0,1-1.5-.832,2.98,2.98,0,0,1-1-2.871" transform="translate(-98.148 -48.878)" fill="#f76d6d"/>
    <path id="Tracé_27584" data-name="Tracé 27584" d="M164.7,116.792a.568.568,0,0,1,.768-.2c.205.147.413.29.631.417.116.067.236.127.356.186s.177.068.241.087a2.665,2.665,0,0,0,.284.067c-.037-.008.1.013.128.014q.095.005.19,0c.03,0,.06,0,.09-.007,0,0,.112-.02.133-.025.046-.011.091-.027.136-.042-.006,0,.1-.046.121-.056a.561.561,0,0,1,.567.969,2.506,2.506,0,0,1-1.855.186,5.01,5.01,0,0,1-1.587-.83.575.575,0,0,1-.2-.768" transform="translate(-97.629 -56.549)" fill="#f76d6d"/>
    <path id="Tracé_27585" data-name="Tracé 27585" d="M181.323,102.171c.868-1.071,2.874-1.93,3.7-1.339a.794.794,0,0,1,.252,1.1,1.648,1.648,0,0,1-.539.4c-.919.5-1.825,1.047-2.767,1.5a.7.7,0,0,1-.936-.232,1.256,1.256,0,0,1,.289-1.429" transform="translate(-122.797 -48.847)" fill="#233d4d"/>
    <path id="Tracé_27586" data-name="Tracé 27586" d="M177.147,209.1a89.955,89.955,0,0,0,2.556,18.613c8.812-2.967,17.531-6.111,17.531-6.111l-.007-.043c2.767-.958,3.037-4.805,3.3-7.247a47.019,47.019,0,0,0,.278-4.9,15.822,15.822,0,0,0-.534-4.684,7.813,7.813,0,0,0-2.055-3.454c-.974-.916-2.577-1.856-3.93-1.263-1.263.554-1.656,2.21-2.069,3.389-.534,1.524-1.023,3.075-1.414,4.644-.036.142-.067.283-.1.425Z" transform="translate(-136.263 -96.988)" fill="#ffa895"/>
    <path id="Tracé_27587" data-name="Tracé 27587" d="M143.672,203.971h13.265a3.741,3.741,0,0,0,3.536-3.006l5.94-24c.293-1.66-1.022-3.515-4.094-3.515H149.054a3.742,3.742,0,0,0-3.536,3.006L141.2,200.965a2.453,2.453,0,0,0,2.476,3.006" transform="translate(-83.38 -84.187)" fill="#233d4d"/>
    <path id="Tracé_27588" data-name="Tracé 27588" d="M143.75,205.715h13.265a3.742,3.742,0,0,0,3.537-3.006l4.321-24.509a2.453,2.453,0,0,0-2.476-3.006H149.131A3.742,3.742,0,0,0,145.6,178.2l-4.321,24.509a2.453,2.453,0,0,0,2.476,3.006" transform="translate(-81.886 -85.033)" fill="#233d4d"/>
    <path id="Tracé_27589" data-name="Tracé 27589" d="M157.5,185.15a1.677,1.677,0,0,0,1.693,2.055,2.557,2.557,0,0,0,2.417-2.055,1.677,1.677,0,0,0-1.693-2.055,2.558,2.558,0,0,0-2.417,2.055" transform="translate(-86.97 -88.868)" fill="#fff"/>
    <path id="Tracé_27590" data-name="Tracé 27590" d="M218.16,218.986l1.563,22.972s4.922.979,15.421-2.22c2.716-.83,5.88-1.856,9.077-2.927.354-.117.706-.236,1.06-.355a90.167,90.167,0,0,1-2.557-18.611l-1.119.05Z" transform="translate(-201.84 -105.734)" fill="#fcca46"/>
    <path id="Tracé_27591" data-name="Tracé 27591" d="M230.818,206.892q.616-.037,1.232-.076c.153-.382.305-.763.453-1.145.054-.135.108-.272.162-.409q2.481-6.329,4.6-12.8c.224-.689-.859-.981-1.084-.3q-.6,1.845-1.237,3.677-1.728,4.992-3.674,9.9c-.15.382-.3.763-.455,1.142" transform="translate(-200.373 -93.084)" fill="#fff"/>
    <path id="Tracé_27592" data-name="Tracé 27592" d="M200.269,219.2a30,30,0,0,1,7.07-.691c1.512-.031,3.025-.095,4.535-.178q.617-.037,1.233-.076c2.477-.157,4.951-.368,7.424-.588l13.343-1.194a.573.573,0,0,0,.561-.561.564.564,0,0,0-.561-.561l-7.6.68c-4.238.379-8.472.8-12.719,1.08-.214.015-.427.029-.64.043-.2.013-.393.025-.59.036-2,.115-4,.173-6,.22a27.264,27.264,0,0,0-6.356.709.561.561,0,0,0,.3,1.082" transform="translate(-181.429 -104.523)" fill="#fff"/>
    <path id="Tracé_27593" data-name="Tracé 27593" d="M162.442,208.381a1.9,1.9,0,0,0,1.219,1.142,2.5,2.5,0,0,0,.938.473,5.083,5.083,0,0,0,1.888.036,16.272,16.272,0,0,0,3.665-.9,8.932,8.932,0,0,1,1.692-.519c.586-.092,1.181,0,1.768-.076a2.885,2.885,0,0,0,2.352-1.9,2.849,2.849,0,0,0-.7-2.907,2.435,2.435,0,0,0-.272-.231c.5-.033.992-.069,1.486-.114a5.583,5.583,0,0,0,3.364-1.084,2.652,2.652,0,0,0,.4-3.3,3.671,3.671,0,0,0-.361-.523,3.388,3.388,0,0,0,1.791-.727,2.794,2.794,0,0,0,.568-3.416,4.8,4.8,0,0,0-3.05-2.3,25.162,25.162,0,0,0-4.381-.891c-.8-.105-1.6-.177-2.409-.224a7.508,7.508,0,0,1,3.066-1.721,7.926,7.926,0,0,1,2.33-.269,9.209,9.209,0,0,0,2.712-.166c1.454-.413,2.731-1.867,2.069-3.422-.727-1.711-2.824-1.926-4.44-2.038a18.191,18.191,0,0,0-5.5.426,7.655,7.655,0,0,0-2.377.981,12.315,12.315,0,0,0-2,1.778c-2.972,3.054-4.773,5.968-4.951,10.306-.113,2.745-.3,5.434-.674,8.147-.023.164-.047.326-.072.489-.015.036-.036.067-.051.1a.688.688,0,0,0-.036.48c-.033.234-.069.469-.1.7a3.42,3.42,0,0,0,.065,1.663" transform="translate(-110.575 -88.945)" fill="#ffa895"/>
    <path id="Tracé_27594" data-name="Tracé 27594" d="M160.732,149.316c3.169,1.748,8.2,3.221,16.146,3.077,10.387-.188,15.525-2.722,18.045-4.958-3.412-.051-8.3-.033-15.118.173a150.24,150.24,0,0,0-19.073,1.708" transform="translate(-121.928 -71.548)" fill="#ffa895"/>
    <path id="Tracé_27595" data-name="Tracé 27595" d="M70.5,222.111A14.851,14.851,0,1,0,85.352,207.26,14.851,14.851,0,0,0,70.5,222.111" transform="translate(19.228 -100.597)" fill="#fcca46"/>
    <path id="Tracé_27596" data-name="Tracé 27596" d="M72.066,208.205c.105,6.482.251,13.269.067,13.374-.3.17,25.2-4.453,25.2-4.453l-2.77-9.148-.327-1.077a50.041,50.041,0,0,1-5.136.684,76.626,76.626,0,0,1-11.233,0c-1.942-.126-3.881-.3-5.815-.5.007.373.013.748.018,1.122" transform="translate(21.306 -100.422)" fill="#fcca46"/>
    <path id="Tracé_27597" data-name="Tracé 27597" d="M206.626,93.96a4.763,4.763,0,0,1,1.55-.686,4.076,4.076,0,0,1-.654-.932.561.561,0,0,1,.768-.768,10.106,10.106,0,0,1,2.339,2.082.575.575,0,0,1,0,.794.566.566,0,0,1-.793,0c-.05-.061-.1-.119-.152-.179l-.1-.005a.527.527,0,0,1-.256.348,3.613,3.613,0,0,1-2.57.372.56.56,0,0,1-.4-.467.572.572,0,0,1,.268-.559" transform="translate(-161.271 -44.41)" fill="#233d4d"/>
    <path id="Tracé_27598" data-name="Tracé 27598" d="M63.922,6.927a.567.567,0,0,1,.486-.551.559.559,0,0,1,.616.4,17.6,17.6,0,0,1,.333,1.9L66.082,8a.562.562,0,0,1,.882.68,4.434,4.434,0,0,1-1.6,1.794.569.569,0,0,1-.684-.092.576.576,0,0,1-.249-.221.477.477,0,0,1-.194.032.567.567,0,0,1-.561-.561q.123-1.351.245-2.7" transform="translate(55.912 -3.092)" fill="#233d4d"/>
    <path id="Tracé_27599" data-name="Tracé 27599" d="M88.571,27.6a4.647,4.647,0,0,1,2.5-.253.707.707,0,0,1,.268.1.566.566,0,0,1,.571.447.572.572,0,0,1-.437.662c-.3.066-.595.144-.887.237-.21.067-.476.167-.749.284s-.539.247-.8.389q-.2.11-.4.229-.1.059-.2.121l-.1.062a.614.614,0,0,1-.578.124.577.577,0,0,1-.364-.417A1.781,1.781,0,0,1,88.571,27.6" transform="translate(18.844 -13.241)" fill="#233d4d"/>
    <path id="Tracé_27600" data-name="Tracé 27600" d="M101.829,32.245a2.212,2.212,0,0,1,.274-.028,3.437,3.437,0,0,1,3.388.84.566.566,0,0,1-.114.882,1.8,1.8,0,0,1-1.084.14,3.473,3.473,0,0,1-.876-.312c-.126-.059-.251-.121-.377-.182-.069-.033-.139-.066-.209-.1-.04-.019-.068-.029-.095-.039a2.934,2.934,0,0,0-.4-.117l-.054,0a.48.48,0,0,1-.156,0,.561.561,0,0,1-.294-1.083" transform="translate(-2.134 -15.566)" fill="#233d4d"/>
    <path id="Tracé_27601" data-name="Tracé 27601" d="M88.756,36.655a.772.772,0,0,1,1.285,0c.27.344.592.866.358,1.306-.561,1.056-1.927-.208-1.739-1.058a.823.823,0,0,1,.1-.244" transform="translate(19.614 -17.623)" fill="#233d4d"/>
    <path id="Tracé_27602" data-name="Tracé 27602" d="M100.964,39.464a.579.579,0,0,1,.562-.561c.724-.07,1.271,1.335.765,1.8-.638.59-1.4-.515-1.327-1.242" transform="translate(1.269 -18.881)" fill="#233d4d"/>
    <path id="Tracé_27603" data-name="Tracé 27603" d="M55.4,51.2q4.543-5.151,9.017-10.362,1.263-1.471,2.52-2.946a.566.566,0,0,1,.794,0,.573.573,0,0,1,0,.794q-4.454,5.228-8.978,10.4-1.277,1.459-2.559,2.913A.561.561,0,0,1,55.4,51.2" transform="translate(59.398 -18.311)" fill="#233d4d"/>
    <path id="Tracé_27604" data-name="Tracé 27604" d="M41.121,98.962V127.69a4.32,4.32,0,0,0,4.322,4.319H74.17a4.32,4.32,0,0,0,4.322-4.319V98.962a4.322,4.322,0,0,0-4.322-4.321H45.443a4.322,4.322,0,0,0-4.322,4.321" transform="translate(56.059 -45.935)" fill="#233d4d"/>
    <path id="Tracé_27605" data-name="Tracé 27605" d="M80.9,131.615l.08-1.6c-.711-.035-1.953-1.36-3.154-2.641-2.425-2.586-5.745-6.127-10.382-6.127a14.368,14.368,0,0,0-6.737,1.3,9.277,9.277,0,0,1-4.395.941,4.943,4.943,0,0,1-4.965-3.93l-1.57.3a6.5,6.5,0,0,0,6.534,5.23,10.854,10.854,0,0,0,5.033-1.075,12.853,12.853,0,0,1,6.1-1.166c3.944,0,6.868,3.118,9.217,5.622,1.611,1.718,2.884,3.075,4.239,3.144" transform="translate(49.12 -58.031)" fill="#e0e0e0"/>
    <rect id="Rectangle_1277" data-name="Rectangle 1277" width="4.843" height="14.897" transform="translate(127.337 64.589)" fill="#fcca46"/>
    <rect id="Rectangle_1278" data-name="Rectangle 1278" width="4.844" height="14.897" transform="translate(120.148 60.224)" fill="#fcca46"/>
    <rect id="Rectangle_1279" data-name="Rectangle 1279" width="4.843" height="14.897" transform="translate(113.293 57.133)" fill="#fcca46"/>
    <rect id="Rectangle_1280" data-name="Rectangle 1280" width="4.843" height="14.897" transform="translate(98.821 55.705)" fill="#fcca46"/>
    <rect id="Rectangle_1281" data-name="Rectangle 1281" width="4.843" height="14.897" transform="translate(105.954 58.512)" fill="#fcca46"/>
    <path id="Tracé_27606" data-name="Tracé 27606" d="M41.121,98.962v.972H78.492v-.972a4.322,4.322,0,0,0-4.322-4.321H45.443a4.322,4.322,0,0,0-4.322,4.321" transform="translate(56.059 -45.935)" fill="#fcca46"/>
    <path id="Tracé_27607" data-name="Tracé 27607" d="M32.93,162.163a4.818,4.818,0,0,0,.081,1.663,2.838,2.838,0,0,0,1.535,1.88,6.971,6.971,0,0,0,4.455.056c1.753-.391,3.452-.99,5.173-1.5.857-.254,1.721-.485,2.6-.658.036.009.072.018.112.025a.807.807,0,0,0,.594-.148c.687-.105,1.378-.177,2.067-.269a15.994,15.994,0,0,0,1.614-.314,35.5,35.5,0,0,0,8.682-2.639,23.917,23.917,0,0,0,4.975-2.467,23.046,23.046,0,0,0,2.3-1.968,9.206,9.206,0,0,0,1.574-2.242,2.755,2.755,0,0,0,.51-2.381,1.913,1.913,0,0,0-1.531-1.446c-1.876-.568-2.314.259-3.921,1.01-.79.37-1.278.388-1.707.767a4.276,4.276,0,0,0,.125-1.116c.117-1.537.067-3.517-1.7-4.078a3.216,3.216,0,0,0-3.43,1.309,2.585,2.585,0,0,0-.986-.824,3.279,3.279,0,0,0-2.26-.142c-1.6.44-2.6,1.809-3.445,3.14-.494.774-1.005,1.533-1.546,2.271.069-.211.132-.42.188-.631a3.089,3.089,0,0,0-.366-3.1,1.827,1.827,0,0,0-2.582-.439,7.906,7.906,0,0,0-2.568,2.552c-.523.887-1.171,1.561-1.652,2.471a11.468,11.468,0,0,1-3.665,4.639c-1,.635-2.143,1.019-3.144,1.661a5.591,5.591,0,0,0-1.627,1.524.5.5,0,0,0-.294.35c-.016.076-.029.155-.043.233-.056.124-.108.25-.153.382a.487.487,0,0,0,.036.424" transform="translate(69.498 -70.966)" fill="#ffa895"/>
    <path id="Tracé_27608" data-name="Tracé 27608" d="M82.177,172.762a4.428,4.428,0,0,0,2.368,2.974c2.758,1.4,5.849.281,8.549-.691a23.11,23.11,0,0,0,7.66-4.154.469.469,0,0,0,.137-.566,7.759,7.759,0,0,0,1.032-2.48,5.1,5.1,0,0,0,.137-1.924,1.443,1.443,0,0,0-.952-1.147.519.519,0,0,0-.851-.112c-.455.507-1.308.4-1.921.4l-2.785.013c-1.811.009-3.638-.045-5.443.112-2.761.238-5.8,1.192-7.29,3.731a5.4,5.4,0,0,0-.642,3.842" transform="translate(11.376 -79.835)" fill="#ffa895"/>
    <path id="Tracé_27609" data-name="Tracé 27609" d="M78.125,191.607c1.935.2,3.874.375,5.815.5a76.626,76.626,0,0,0,11.233,0,50.189,50.189,0,0,0,5.136-.684l-4.568-15.087-17.227-1.322s-.294,2.108-.427,7.855c-.045,1.953-.011,5.238.038,8.735" transform="translate(15.229 -84.947)" fill="#ffa895"/>
    <path id="Tracé_27610" data-name="Tracé 27610" d="M118.147,201.533a.565.565,0,0,0,.561.561.578.578,0,0,0,.561-.561q.3-3.781.507-7.57.371-6.74.442-13.493c.023-2.047-.058-4.11.072-6.152a9.005,9.005,0,0,1,1.034-4.006l-.723-.929a10.072,10.072,0,0,0-1.45,5.2c-.108,2.105-.034,4.224-.061,6.332q-.044,3.431-.162,6.861-.239,6.884-.783,13.756" transform="translate(-26.414 -82.212)" fill="#fff"/>
    <path id="Tracé_27611" data-name="Tracé 27611" d="M71.151,158.918a8.858,8.858,0,0,0,4.895-3.926c.7-1.027,1.294-2.113,1.925-3.177A10.512,10.512,0,0,1,80.052,149a3.386,3.386,0,0,1,3.05-.8,2.631,2.631,0,0,1,1.81,2.4,8.688,8.688,0,0,1-.385,3.182,15.863,15.863,0,0,1-1.274,3.161,39.073,39.073,0,0,1-4.5,6.366.586.586,0,0,1-.811,0,.565.565,0,0,1,0-.793,43.134,43.134,0,0,0,3.813-5.23,13.391,13.391,0,0,0,2.026-5.823c.048-.76-.016-1.807-.857-2.146a2.264,2.264,0,0,0-2.334.716,12.6,12.6,0,0,0-1.813,2.653c-.59,1.009-1.164,2.029-1.828,2.994A9.949,9.949,0,0,1,71.456,160a.562.562,0,0,1-.3-1.082" transform="translate(34.362 -71.881)" fill="#f76d6d"/>
    <path id="Tracé_27612" data-name="Tracé 27612" d="M55.747,151.268a11.622,11.622,0,0,1,3.069-4.7,5.389,5.389,0,0,1,2.425-1.144,3.171,3.171,0,0,1,2.664.564,2.843,2.843,0,0,1,.7,2.375,14.878,14.878,0,0,1-.526,2.737,23.918,23.918,0,0,1-2.207,5.184,56.873,56.873,0,0,1-3.53,5.393.578.578,0,0,1-.768.2.565.565,0,0,1-.2-.768,37.875,37.875,0,0,0,5.183-8.938,18.2,18.2,0,0,0,.714-2.491,5.7,5.7,0,0,0,.19-2.232c-.344-1.641-2.662-.879-3.593-.264-1.6,1.062-2.4,2.954-3.148,4.649a.565.565,0,0,1-.768.2.575.575,0,0,1-.2-.768" transform="translate(62.439 -70.552)" fill="#f76d6d"/>
    <path id="Tracé_27613" data-name="Tracé 27613" d="M46.768,164.384q7.127-1.261,14.2-2.8.972-.212,1.942-.429c.322-.072.646-.138.966-.22a1.707,1.707,0,0,0,.439-.162.452.452,0,0,1,.126-.179,16,16,0,0,0,5.489-10.478,13.3,13.3,0,0,0,.063-2,2.255,2.255,0,0,0-.715-1.7,1.809,1.809,0,0,0-2.891.948.562.562,0,0,1-1.082-.3,2.956,2.956,0,0,1,3.475-2.115,3.022,3.022,0,0,1,1.809,1.271,4.343,4.343,0,0,1,.536,2.429,17.02,17.02,0,0,1-2.524,8.779,16.759,16.759,0,0,1-3.18,3.794.563.563,0,0,1-.134.211,2.733,2.733,0,0,1-1.432.66q-.889.2-1.78.4-1.808.4-3.619.779-3.623.76-7.26,1.447-2.063.389-4.13.755a.577.577,0,0,1-.69-.392.565.565,0,0,1,.392-.69" transform="translate(60.728 -70.316)" fill="#f76d6d"/>
    <path id="Tracé_27614" data-name="Tracé 27614" d="M32.27,163.842c1.634-.752,3.28-1.483,4.894-2.278a23.4,23.4,0,0,0,4.287-2.594,11.286,11.286,0,0,0,3.041-3.474,1.97,1.97,0,0,0-.015-1.98,1.886,1.886,0,0,0-1.632-.876,4.915,4.915,0,0,0-2.384.989,6.586,6.586,0,0,1-2.662,1.1.564.564,0,0,1-.561-.561.575.575,0,0,1,.561-.561,5.913,5.913,0,0,0,2.261-1.053,6.092,6.092,0,0,1,2.547-1.024,3.012,3.012,0,0,1,3.268,3.138,4.74,4.74,0,0,1-1.035,2.382,12.956,12.956,0,0,1-1.68,1.92,20.144,20.144,0,0,1-4.409,3.04c-1.927,1.02-3.936,1.887-5.915,2.8a.578.578,0,0,1-.768-.2.566.566,0,0,1,.2-.768" transform="translate(93.364 -73.541)" fill="#f76d6d"/>
    <path id="Tracé_27615" data-name="Tracé 27615" d="M29.449,92.758c.183,1.079.966,2.3,2.129,2.359a2.91,2.91,0,0,0,1.915-.874A6.1,6.1,0,0,0,34.785,92.7,6.506,6.506,0,0,1,35.912,91.1a5.243,5.243,0,0,1,1.444-.89c.147-.065.3-.126.452-.178a13.441,13.441,0,0,0-.543,2.121c-.274,1.655-.371,4.011,1.015,5.214,1.3,1.126,2.84.532,4.078-.358a2.554,2.554,0,0,0,1.058,1.489c1.358.885,3.111.246,4.161-.835a5.459,5.459,0,0,0,.766-1A2.723,2.723,0,0,0,50.972,98.2a4.324,4.324,0,0,0,3.136-1.869c.817-1.084,1.388-2.346,2.1-3.5a34.492,34.492,0,0,1,2.37-3.387,2.113,2.113,0,0,0,1.177-.657,2.406,2.406,0,0,0,.53-2.133c-.347-1.508-2.073-2.136-3.4-2.254a5.3,5.3,0,0,0-1.421.074,6,6,0,0,0-2.385-1.689,5.357,5.357,0,0,0-3.717-.05.739.739,0,0,0-.079-.037,7.772,7.772,0,0,0-6.3.044,6.472,6.472,0,0,0-1.5,1.074.6.6,0,0,0-.33-.286c-2.893-1.063-6.009.558-8.308,2.3-2.073,1.573-3.864,4.125-3.385,6.924" transform="translate(80.255 -39.826)" fill="#ffa895"/>
    <path id="Tracé_27616" data-name="Tracé 27616" d="M65.291,30.6a6.9,6.9,0,0,0,.546-.952c.016-.036.032-.072.049-.107s.071-.2.021-.046c.029-.086.069-.17.1-.256.064-.171.119-.346.169-.522a.562.562,0,0,1,1.083.3,7.621,7.621,0,0,1-.369,1.008c.041-.014.081-.028.121-.043l.149-.058a3.388,3.388,0,0,0,.551-.265.561.561,0,0,1,.567.969,7.4,7.4,0,0,1-2.353.8.578.578,0,0,1-.59-.2.558.558,0,0,1-.044-.623" transform="translate(53.601 -13.736)" fill="#f76d6d"/>
    <path id="Tracé_27617" data-name="Tracé 27617" d="M126.526,186.16q1.559-1.5,3.026-3.1a.565.565,0,0,1,.794,0,.573.573,0,0,1,0,.794q-1.466,1.593-3.026,3.1a.561.561,0,0,1-.794-.794" transform="translate(-39.823 -88.774)" fill="#fff"/>
    <path id="Tracé_27618" data-name="Tracé 27618" d="M128.939,207.719q.289.468.588.934a8.436,8.436,0,0,0,2.166-1.506,16.572,16.572,0,0,0,2.72-3.6,11.464,11.464,0,0,0,1.621-4.309,17.887,17.887,0,0,0-1.6-9.285.573.573,0,0,0-.689-.391.564.564,0,0,0-.393.689,23.565,23.565,0,0,1,1.488,4.835,12.23,12.23,0,0,1,.059,4.2,11.177,11.177,0,0,1-1.609,3.95c-1.062,1.733-2.447,3.616-4.35,4.475" transform="translate(-46.802 -91.998)" fill="#fff"/>
    <path id="Tracé_27619" data-name="Tracé 27619" d="M223.895,72.03v6.412a6.163,6.163,0,0,0,6.163,6.161H251a40.9,40.9,0,0,0,8.926,5.838.564.564,0,0,0,.68-.882,16.736,16.736,0,0,1-2.776-4.956h.4a6.161,6.161,0,0,0,6.161-6.161V72.03a6.161,6.161,0,0,0-6.161-6.161H230.058a6.163,6.163,0,0,0-6.163,6.161" transform="translate(-223.895 -31.97)" fill="#fcca46"/>
    <path id="Tracé_27620" data-name="Tracé 27620" d="M154.925,13.04a6.16,6.16,0,0,0,6.163,6.161h11.218a16.765,16.765,0,0,0,5.986,2.754.567.567,0,0,0,.548-.938,13.4,13.4,0,0,1-1.531-2.37,6.162,6.162,0,0,0-2.554-11.77H161.088a6.163,6.163,0,0,0-6.163,6.163" transform="translate(-104.932 -3.338)" fill="#fcca46"/>
    <path id="Tracé_27621" data-name="Tracé 27621" d="M234.175,78.749a3.079,3.079,0,0,0,.936,1.06q.08-.909.161-1.819a.568.568,0,0,1,.958-.4c.827.805,1.64,1.627,2.481,2.417l.062.054c.028-.113.087-.273.116-.368a1.9,1.9,0,0,1,.708-1,2.48,2.48,0,0,1,1.98-.373c-.025-.1-.052-.2-.07-.3a2.767,2.767,0,0,1,.145-1.889,1.607,1.607,0,0,1,1.417-.767,3.115,3.115,0,0,1,1.543.461,2,2,0,0,1,.458-.114,3.231,3.231,0,0,1,1.942.5,4.439,4.439,0,0,1,.125-.639,2.648,2.648,0,0,1,1.917-1.869,3.845,3.845,0,0,1,2.753.394,9.76,9.76,0,0,1,2.056,1.544,1.65,1.65,0,0,1,.186-.55,1.415,1.415,0,0,1,1.779-.57,8.9,8.9,0,0,1,1.94,1.156,16.1,16.1,0,0,1,1.55,1.274,5.264,5.264,0,0,1,.091-.691.563.563,0,0,1,.69-.392,3.352,3.352,0,0,1,1.972,2.019.566.566,0,0,1-.392.69.572.572,0,0,1-.69-.392,2.141,2.141,0,0,0-.573-.845,4.231,4.231,0,0,0,.087.851,15.433,15.433,0,0,1,1.946,2.873c.242.464-.274,1.1-.767.768a5.449,5.449,0,0,1-2.188-3.09,14.171,14.171,0,0,0-3.189-2.7,5.375,5.375,0,0,0-.816-.46.677.677,0,0,0-.31-.057.152.152,0,0,0-.1.042s-.054.075-.059.085a.953.953,0,0,0-.062.277,1.968,1.968,0,0,0,.07.641,2.82,2.82,0,0,0,.092.285q.58.6,1.124,1.229a28.1,28.1,0,0,1,3.8,5.692c.275.548-.419,1.161-.881.68a30.326,30.326,0,0,1-3.1-3.8q-.676-.981-1.271-2.015a12.206,12.206,0,0,1-.637-1.191,24.115,24.115,0,0,0-1.79-1.636,4.313,4.313,0,0,0-2.172-1.095,1.877,1.877,0,0,0-1.75.654,2.7,2.7,0,0,0-.354,1.56,10.907,10.907,0,0,1,4.185,7.66.564.564,0,0,1-.844.484,9.492,9.492,0,0,1-1.929-1.632.555.555,0,0,1-.826.432,13.39,13.39,0,0,1-3.918-3.092c-.846-.98-1.72-2.4-1.3-3.757a1.9,1.9,0,0,1,.2-.431,1.914,1.914,0,0,0-.444-.115.974.974,0,0,0-.384.027c-.352.146-.308.664-.267,1.006a4.043,4.043,0,0,0,.657,1.756,10.227,10.227,0,0,1,.9,1,.562.562,0,0,1-.794.794,5.185,5.185,0,0,1-1.02-1.133,2.309,2.309,0,0,0-.947-.52,1.119,1.119,0,0,0-1.4.642,1.666,1.666,0,0,1-.579,1.058,1.163,1.163,0,0,1-1.456-.314c-.552-.519-1.092-1.05-1.631-1.583l-.13,1.465c-.029.33-.34.678-.71.541a4.147,4.147,0,0,1-2.239-1.912c-.343-.636.625-1.2.969-.567m12.81-1.241a4.852,4.852,0,0,0-.815-.472,10.766,10.766,0,0,1,.854.9q-.024-.212-.039-.427m3.947,5.809a9.95,9.95,0,0,0-2.684-4.748,8.955,8.955,0,0,0,.435,1.5,8.494,8.494,0,0,0,2.248,3.243m-6.321-4.849a4.164,4.164,0,0,0,.81,1.39,12.492,12.492,0,0,0,2.69,2.4,9.95,9.95,0,0,0-2.2-3.886,9.742,9.742,0,0,0-1.29-1.211c-.013.02-.027.038-.039.059a1.106,1.106,0,0,0-.106.506,2.318,2.318,0,0,0,.133.746" transform="translate(-226.775 -35.722)" fill="#fff"/>
    <path id="Tracé_27622" data-name="Tracé 27622" d="M164.69,16.427a.2.2,0,0,1,0,.054.216.216,0,0,1,.018.042c-.029-.082.058.067.006.005a.421.421,0,0,0,.178.133,1.151,1.151,0,0,0,.656.083,10.4,10.4,0,0,1,2.05-.514,3.358,3.358,0,0,1,1.7.707c.143.095.288.2.439.283a8.109,8.109,0,0,1-.532-.764,1.366,1.366,0,0,1-.185-.974,1.2,1.2,0,0,1,.847-.833,2.882,2.882,0,0,1,1.3.044c.065.012.129.029.194.044a1.417,1.417,0,0,1,.621-.422,3.948,3.948,0,0,1,2.924.607,12.522,12.522,0,0,1,1.306.743,1.65,1.65,0,0,1,1.332-1.865,2.35,2.35,0,0,1,1.554.55,5.509,5.509,0,0,1,1.093,1.014,5.768,5.768,0,0,1,1.273,3.139c.035.4-.385.594-.711.541a2.676,2.676,0,0,1-2.1-3.075.479.479,0,0,1,.268-.339,3.159,3.159,0,0,0-.973-.66.7.7,0,0,0-.356-.049.417.417,0,0,1-.077.042.566.566,0,0,0-.044.042.625.625,0,0,0-.123.319,2.473,2.473,0,0,0-.015.366,2.539,2.539,0,0,0,.178.759q.065.148.138.294l.1.087a12.979,12.979,0,0,1,2.487,2.953c.28.454-.3,1.109-.767.768a9.381,9.381,0,0,1-2.233-2.3,8.921,8.921,0,0,1-.484-.794,11.89,11.89,0,0,0-1.49-1.064,12.254,12.254,0,0,0-1.283-.671,4.464,4.464,0,0,0-1.075-.38,6.309,6.309,0,0,1,1.449,1.106,6.174,6.174,0,0,1,1.456,2.409.567.567,0,0,1-.824.634,15.073,15.073,0,0,1-2.909-2.452,3.956,3.956,0,0,1-.882-1.194,2.217,2.217,0,0,0-.954-.134l-.123.051c.005.018.012.036.018.053s.01.019.024.047c.339.615.929,1.114,1.035,1.841a.58.58,0,0,1-.258.634,1.947,1.947,0,0,1-1.962-.272c-.517-.328-1.039-.815-1.692-.693a12.1,12.1,0,0,0-1.2.387,2.475,2.475,0,0,1-1.167.072,1.507,1.507,0,0,1-1.344-1.405.561.561,0,0,1,1.122,0m15.037.23a1.475,1.475,0,0,0,.362.763,4.706,4.706,0,0,0-.362-.763" transform="translate(-109.923 -6.695)" fill="#fff"/>
    <path id="Tracé_27623" data-name="Tracé 27623" d="M7.855,32.661a1.49,1.49,0,1,1-1.49,1.49,1.49,1.49,0,0,1,1.49-1.49" transform="translate(143.093 -15.852)" fill="#fff"/>
    <path id="Tracé_27624" data-name="Tracé 27624" d="M16.515,32.661a1.49,1.49,0,1,1-1.49,1.49,1.49,1.49,0,0,1,1.49-1.49" transform="translate(129.976 -15.852)" fill="#fff"/>
    <path id="Tracé_27625" data-name="Tracé 27625" d="M25.176,32.661a1.49,1.49,0,1,1-1.49,1.49,1.49,1.49,0,0,1,1.49-1.49" transform="translate(116.858 -15.852)" fill="#fff"/>
    <path id="Tracé_27626" data-name="Tracé 27626" d="M89.508,97.152a1.476,1.476,0,0,1,.7.18c-.01.03-.02.06-.031.09-.023.064-.047.128-.066.193a5.524,5.524,0,0,0-.153,2.44,1.473,1.473,0,0,1-.447.076,1.49,1.49,0,1,1,0-2.98" transform="translate(20.212 -47.154)" fill="#fff"/>
    <path id="Tracé_27627" data-name="Tracé 27627" d="M96.627,97.153a1.49,1.49,0,1,1-1.49,1.49,1.49,1.49,0,0,1,1.49-1.49" transform="translate(8.636 -47.155)" fill="#fff"/>
    <path id="Tracé_27628" data-name="Tracé 27628" d="M105.287,97.153a1.49,1.49,0,1,1-1.49,1.49,1.49,1.49,0,0,1,1.49-1.49" transform="translate(-4.481 -47.155)" fill="#fff"/>
    <path id="Tracé_27629" data-name="Tracé 27629" d="M28.071,56.8a13.281,13.281,0,0,1,2.617-2.089c1.865-1.215,3.733-2.427,5.575-3.677A39.161,39.161,0,0,1,40.9,48.089c-.644-.078-1.295-.144-1.948-.2-.28.168-.559.343-.833.523-1.9,1.241-3.751,2.552-5.647,3.8a26.185,26.185,0,0,0-5.2,3.791c-.487.532.305,1.327.792.795" transform="translate(100.849 -23.246)" fill="#fff"/>
    <path id="Tracé_27630" data-name="Tracé 27630" d="M97.136,59.479a17.942,17.942,0,0,0,8.717,7.305.566.566,0,0,0,.691-.393.577.577,0,0,0-.393-.689,16.246,16.246,0,0,1-2.884-1.491,16.851,16.851,0,0,1-5.126-5.245c-.343.166-.678.335-1.006.512" transform="translate(-0.841 -28.62)" fill="#fff"/>
    <path id="Tracé_27631" data-name="Tracé 27631" d="M32.545,95.844a17.172,17.172,0,0,1,1.337-2.577,33.953,33.953,0,0,1,4.064-5.036c.5-.528,1.288.267.794.793a35.946,35.946,0,0,0-3.36,4.014,14.061,14.061,0,0,0-2.287,4.685,2.539,2.539,0,0,0,.35,2.253,1.786,1.786,0,0,0,1.724.468c1.577-.332,2.4-1.894,3.131-3.176a20.873,20.873,0,0,1,3.577-4.951c.524-.5,1.32.3.794.794a19.707,19.707,0,0,0-3.378,4.681c-.874,1.525-1.873,3.25-3.709,3.708a3.107,3.107,0,0,1-2.453-.326,3.016,3.016,0,0,1-1.258-2.365,6.732,6.732,0,0,1,.673-2.964" transform="translate(96.473 -42.74)" fill="#f76d6d"/>
    <path id="Tracé_27632" data-name="Tracé 27632" d="M49,95.3a18.449,18.449,0,0,1,.917-2.541A25.277,25.277,0,0,1,52.524,88.2a49.371,49.371,0,0,1,3.666-4.928c.486-.537,1.277.259.794.794a40.164,40.164,0,0,0-2.939,3.916A32.838,32.838,0,0,0,51.507,92a21.179,21.179,0,0,0-.923,2.087,9.9,9.9,0,0,0-.649,2.237,2.573,2.573,0,0,0,.4,1.869,1.689,1.689,0,0,0,1.654.57,3.911,3.911,0,0,0,3.061-2.355.565.565,0,0,1,.768-.2.575.575,0,0,1,.2.767,4.989,4.989,0,0,1-3.272,2.78,3.5,3.5,0,0,1-2.438-.142,2.869,2.869,0,0,1-1.37-1.751A4.726,4.726,0,0,1,49,95.3" transform="translate(73.471 -40.33)" fill="#f76d6d"/>
    <path id="Tracé_27633" data-name="Tracé 27633" d="M64.555,86.953a21.585,21.585,0,0,1,3.16-3.84c.516-.506,1.31.287.794.793a17.179,17.179,0,0,0-4.358,6.4,11.2,11.2,0,0,0-.67,3.918,4.367,4.367,0,0,0,.946,3.118,1.8,1.8,0,0,0,2.593-.291.563.563,0,0,1,.793,0,.575.575,0,0,1,0,.794,2.931,2.931,0,0,1-3.236.876,3.668,3.668,0,0,1-2.094-3.074,12.818,12.818,0,0,1,2.071-8.689" transform="translate(54.943 -40.261)" fill="#f76d6d"/>
    <path id="Tracé_27634" data-name="Tracé 27634" d="M65.13,90.919a8.982,8.982,0,0,1,1.128-2.82A10.7,10.7,0,0,1,70.5,84.052a10.178,10.178,0,0,1,3.48-.909,5.3,5.3,0,0,1,3.382.367.561.561,0,0,1-.566.969,4.026,4.026,0,0,0-2.509-.249,10.129,10.129,0,0,0-2.82.606,9.191,9.191,0,0,0-3.885,3.276,8.627,8.627,0,0,0-1.2,2.427,4.968,4.968,0,0,0-.184,2.64,1.642,1.642,0,0,0,1.514,1.358c.756-.044,1.29-.778,1.625-1.38A8.951,8.951,0,0,1,71,90.551a4.376,4.376,0,0,1,2.761-1.089c.723-.022.722,1.1,0,1.122a3.19,3.19,0,0,0-2.274,1.065A27.19,27.19,0,0,0,70,94.216a3.015,3.015,0,0,1-2.37,1.444,2.656,2.656,0,0,1-2.274-1.545,5.079,5.079,0,0,1-.225-3.195" transform="translate(44.637 -40.304)" fill="#f76d6d"/>
    <path id="Tracé_27635" data-name="Tracé 27635" d="M167.117,97.62a1.779,1.779,0,0,1,1.961-.739c.5.12,1.657.822,1.482,1.424a.512.512,0,0,1-.617.392c-.063-.011-.127-.022-.19-.031a1.346,1.346,0,0,0-1.076.173,4.163,4.163,0,0,1-.649.517c-1.022.505-1.269-1.128-.911-1.736" transform="translate(-100.789 -46.996)" fill="#233d4d"/>
  </g>
</svg>
